<svg width="65" height="65" fill="none" xmlns="http://www.w3.org/2000/svg"><path d="M32.497 63.663c17.213 0 31.166-13.953 31.166-31.166 0-17.212-13.953-31.165-31.166-31.165-17.212 0-31.165 13.953-31.165 31.165 0 17.213 13.953 31.166 31.165 31.166z" stroke="#DAAA72" stroke-width="1.557" stroke-miterlimit="10"/><path d="M22.462 46.657c0 .248-.045.501-.135.754a2.29 2.29 0 01-.39.695 2.134 2.134 0 01-.612.517 1.77 1.77 0 01-.82.227H13.83a.564.564 0 01-.383-.142.444.444 0 01-.158-.34v-3.421c0-.133.054-.248.158-.341a.555.555 0 01.383-.141h6.562c.322 0 .61.066.865.202a2.227 2.227 0 011.063 1.22c.096.259.141.514.141.77zm-8.09-1.228v2.454h5.784c.255 0 .466-.043.63-.126.166-.082.294-.186.39-.306.093-.12.157-.253.192-.397.034-.144.05-.277.05-.397s-.016-.253-.05-.397a1.039 1.039 0 00-.581-.703 1.408 1.408 0 00-.631-.125h-5.784v-.003zm13.751.786c.293 0 .551-.01.775-.035.224-.024.466-.087.72-.197.255-.106.546-.269.87-.482.328-.216.733-.514 1.22-.895a.651.651 0 01.384-.141c.15 0 .277.048.384.141a.444.444 0 01.157.341.402.402 0 01-.061.21.67.67 0 01-.152.171c-.472.376-.895.685-1.266.93a6.97 6.97 0 01-1.052.583 4.5 4.5 0 01-.967.306 5.232 5.232 0 01-1.012.091c-.384 0-.733-.03-1.052-.085-.32-.056-.64-.16-.962-.307a7.462 7.462 0 01-1.036-.588 20.929 20.929 0 01-1.271-.93.62.62 0 01-.152-.17.386.386 0 01-.061-.211c0-.133.053-.248.157-.341a.555.555 0 01.384-.141.5.5 0 01.202.04c.061.026.12.061.181.101.48.376.885.671 1.21.884.327.216.618.376.876.483.259.106.504.173.738.202.232.027.493.04.786.04zm-.698 2.152c0-.173.066-.322.202-.442a.724.724 0 01.496-.18c.194 0 .36.06.495.18a.57.57 0 01.203.443.568.568 0 01-.203.442.724.724 0 01-.495.18.724.724 0 01-.496-.18.568.568 0 01-.202-.443zm7.417-1.71c0 .12.016.253.05.397a1.046 1.046 0 00.576.703c.162.086.373.126.636.126h4.478c.256 0 .467-.043.632-.126a1.037 1.037 0 00.58-.703c.035-.144.051-.277.051-.397v-1.71c0-.133.053-.248.157-.341a.555.555 0 01.384-.141.56.56 0 01.383.141.444.444 0 01.158.341v1.71c0 .256-.048.512-.142.77a2.278 2.278 0 01-.41.703 2.18 2.18 0 01-.652.517 1.845 1.845 0 01-.866.203h-5.13a1.76 1.76 0 01-.821-.227 2.175 2.175 0 01-.613-.517 2.344 2.344 0 01-.39-.695 2.247 2.247 0 01-.135-.754v-1.71c0-.133.053-.248.157-.341a.555.555 0 01.384-.141c.149 0 .277.048.384.141a.444.444 0 01.157.341v1.71h-.008zm10.701.483a1.569 1.569 0 01-1.058-.395 1.308 1.308 0 01-.32-.423 1.154 1.154 0 01-.117-.523c0-.186.04-.362.118-.522a1.446 1.446 0 01.79-.711c.182-.07.376-.107.587-.107h6.83c.15 0 .277.048.384.142a.444.444 0 01.157.34.444.444 0 01-.157.342.554.554 0 01-.384.14H45.52a.45.45 0 00-.298.107.33.33 0 000 .527.442.442 0 00.298.113h6.223a1.606 1.606 0 011.07.394c.137.12.243.264.32.426.08.165.118.341.118.528 0 .186-.04.362-.118.522a1.46 1.46 0 01-.32.423c-.135.12-.295.216-.479.283a1.724 1.724 0 01-.591.101h-6.82a.564.564 0 01-.383-.141.444.444 0 01-.158-.341c0-.133.054-.248.157-.341a.555.555 0 01.384-.141h6.865c.112 0 .21-.035.293-.107a.324.324 0 00.123-.256.36.36 0 00-.123-.271.424.424 0 00-.293-.112h-6.244v.002zm-29.314 4.919a.153.153 0 01-.046.111.151.151 0 01-.111.046.153.153 0 01-.112-.046.15.15 0 01-.046-.111v-.72c0-.09-.005-.136-.016-.136a.39.39 0 00-.093.088l-.724.823a.275.275 0 01-.107.075.383.383 0 01-.272 0 .25.25 0 01-.106-.075l-.725-.823c-.05-.058-.082-.088-.093-.088-.01 0-.016.046-.016.136v.72a.153.153 0 01-.045.111.151.151 0 01-.112.046.153.153 0 01-.112-.046.15.15 0 01-.046-.111v-.962a.34.34 0 01.075-.224.256.256 0 01.208-.093.25.25 0 01.141.04c.043.026.08.058.115.096l.759.863c.01.01.024.021.04.034a.08.08 0 00.05.019.075.075 0 00.051-.019c.016-.013.03-.024.04-.034l.754-.863h.003a.356.356 0 01.111-.099.297.297 0 01.144-.037c.088 0 .158.032.208.093a.34.34 0 01.075.224v.962h.008zm.331-1.119c0-.043.015-.083.044-.112a.15.15 0 01.112-.045h2.336c.043 0 .083.016.112.045a.15.15 0 01.046.112.153.153 0 01-.046.112.15.15 0 01-.112.045h-2.336a.153.153 0 01-.112-.045.15.15 0 01-.045-.112zm.401 1.279a.352.352 0 01-.143-.032.456.456 0 01-.258-.402v-.296c0-.059.015-.099.05-.12a.347.347 0 01.16-.03h2.21c.043 0 .083.017.113.046a.15.15 0 01.045.112.153.153 0 01-.046.111.15.15 0 01-.111.046h-2.108v.162c0 .022.008.04.03.059a.11.11 0 00.074.024h2.078c.043 0 .083.016.112.045a.15.15 0 01.045.112.153.153 0 01-.045.112.151.151 0 01-.112.045h-2.094v.006zm2.579-1.279c0-.043.016-.083.045-.112a.15.15 0 01.112-.045c.01 0 .021 0 .032.002h2.094c.043 0 .083.016.112.046a.15.15 0 01.045.112.153.153 0 01-.045.111.15.15 0 01-.112.046h-1.969v.12a.121.121 0 00.101.123h1.713c.062 0 .12.01.174.034a.46.46 0 01.237.232.404.404 0 01.034.17c0 .061-.01.12-.034.17a.457.457 0 01-.237.232.419.419 0 01-.173.035h-1.974a.153.153 0 01-.112-.045.15.15 0 01-.046-.112c0-.014 0-.024.003-.038-.003-.01-.003-.023-.003-.037V50.94h.003zm.317.711v.25h1.83a.13.13 0 00.088-.037.12.12 0 000-.173.118.118 0 00-.088-.035h-1.75a.725.725 0 01-.08-.005zm2.592-.711c0-.043.016-.083.045-.112a.15.15 0 01.112-.045h2.336c.043 0 .083.016.112.045a.15.15 0 01.046.112.153.153 0 01-.046.112.151.151 0 01-.112.045h-2.336a.153.153 0 01-.112-.045.15.15 0 01-.045-.112zm.402 1.279a.352.352 0 01-.144-.032.454.454 0 01-.258-.402v-.296c0-.059.016-.099.05-.12a.347.347 0 01.16-.03h2.212c.042 0 .082.017.111.046a.15.15 0 01.046.112.153.153 0 01-.046.111.15.15 0 01-.111.046h-2.108v.162c0 .022.008.04.03.059a.11.11 0 00.074.024h2.078c.043 0 .083.016.112.045a.15.15 0 01.045.112.153.153 0 01-.045.112.151.151 0 01-.112.045h-2.094v.006zm2.861-.062a.151.151 0 01-.122.059.152.152 0 01-.112-.046.15.15 0 01-.045-.111c0-.04.01-.072.032-.096l.801-1.08a.425.425 0 01.15-.122.427.427 0 01.386-.005c.058.03.106.07.144.12l.802 1.07a.2.2 0 01.031.051.153.153 0 01-.032.173.15.15 0 01-.111.046.147.147 0 01-.125-.064l-.768-1.026a.609.609 0 00-.058-.058.11.11 0 00-.072-.032.11.11 0 00-.072.032.342.342 0 00-.053.058l-.776 1.031zm2.568.062a.153.153 0 01-.112-.046.151.151 0 01-.045-.112V50.94c0-.043.016-.083.045-.112a.15.15 0 01.112-.045.158.158 0 01.157.157v.402h1.817a.463.463 0 01.314.128.46.46 0 01.096.138c.024.054.035.11.035.171a.38.38 0 01-.035.17.457.457 0 01-.237.232.42.42 0 01-.173.035H28.28v.003zm1.987-.317a.13.13 0 00.088-.038.12.12 0 000-.173.118.118 0 00-.088-.035h-1.83v.246h1.83zm4.825.157a.153.153 0 01-.045.111.151.151 0 01-.112.046.153.153 0 01-.112-.046.15.15 0 01-.045-.111v-.403H32.83v.403a.153.153 0 01-.046.111.151.151 0 01-.112.046.153.153 0 01-.112-.046.15.15 0 01-.045-.111v-1.122c0-.043.016-.083.045-.112a.15.15 0 01.112-.045c.043 0 .083.016.112.045a.15.15 0 01.046.112v.402h1.947v-.402c0-.043.016-.083.045-.112a.15.15 0 01.112-.045c.043 0 .082.016.112.045a.15.15 0 01.045.112v1.122zm2.216-.158h-1.414l-.192.259a.151.151 0 01-.122.058.152.152 0 01-.112-.045.15.15 0 01-.046-.112.14.14 0 01.032-.096l.802-1.079a.424.424 0 01.15-.122.426.426 0 01.386-.005.388.388 0 01.143.12l.802 1.07a.205.205 0 01.032.05.153.153 0 01-.032.173.15.15 0 01-.112.046.147.147 0 01-.125-.064l-.192-.253zm-1.174-.317h.935l-.339-.455a.61.61 0 00-.058-.059.109.109 0 00-.072-.032.109.109 0 00-.072.032.342.342 0 00-.053.059l-.341.455zm3.836-.084c0-.043.016-.083.045-.113a.151.151 0 01.112-.045h1.638a.12.12 0 00.086-.037.12.12 0 000-.173.117.117 0 00-.086-.035h-2.014a.153.153 0 01-.111-.045.151.151 0 01-.046-.112c0-.043.016-.083.045-.112a.15.15 0 01.112-.045h1.998a.422.422 0 01.407.264.42.42 0 01-.072.453.433.433 0 01-.335.716h-1.998a.153.153 0 01-.111-.045.15.15 0 01-.046-.112c0-.043.016-.083.045-.112a.151.151 0 01.112-.045h2.014a.119.119 0 00.086-.035.115.115 0 00.037-.085.12.12 0 00-.037-.088.12.12 0 00-.086-.038h-1.638a.153.153 0 01-.112-.045.162.162 0 01-.045-.112zm4.438.401h-1.415l-.192.259a.151.151 0 01-.122.058.153.153 0 01-.112-.045.151.151 0 01-.045-.112c0-.04.01-.072.032-.096l.801-1.079a.425.425 0 01.15-.122.427.427 0 01.386-.005.384.384 0 01.144.12l.802 1.07a.205.205 0 01.032.05.16.16 0 01.013.062.153.153 0 01-.045.112.15.15 0 01-.112.045.147.147 0 01-.125-.064l-.192-.253zm-1.175-.317h.935l-.338-.455a.609.609 0 00-.059-.059.109.109 0 00-.072-.032.109.109 0 00-.072.032.342.342 0 00-.053.059l-.341.455zm2.291-.244h.762c.114 0 .226-.017.335-.046.11-.03.216-.07.323-.117.104-.048.205-.104.3-.166.097-.06.187-.125.275-.189a.168.168 0 01.112-.045c.043 0 .083.016.112.045a.15.15 0 01.045.112.116.116 0 01-.026.08.28.28 0 01-.064.061 3.987 3.987 0 01-.322.23 8.431 8.431 0 01-.163.095c-.056.032-.117.062-.179.094a3.607 3.607 0 01.498.295c.054.038.107.08.166.123a.347.347 0 01.063.061c.02.024.027.05.027.08a.153.153 0 01-.045.112.151.151 0 01-.112.045.183.183 0 01-.112-.045 5.205 5.205 0 00-.28-.192 2.503 2.503 0 00-.298-.165 1.76 1.76 0 00-.32-.114 1.289 1.289 0 00-.335-.043h-.762v.402a.153.153 0 01-.045.112.145.145 0 01-.11.045.153.153 0 01-.112-.045.151.151 0 01-.045-.112v-1.121c0-.043.016-.083.045-.112a.145.145 0 01.11-.046c.042 0 .082.016.112.046a.15.15 0 01.045.112v.407zm4.481.561H48.59l-.192.259a.151.151 0 01-.122.058.153.153 0 01-.112-.045.151.151 0 01-.045-.112c0-.04.01-.072.032-.096l.801-1.079a.424.424 0 01.15-.122.427.427 0 01.386-.005.392.392 0 01.144.12l.802 1.07a.205.205 0 01.032.05c.008.02.013.04.013.062a.153.153 0 01-.045.112.15.15 0 01-.112.045.147.147 0 01-.126-.064l-.191-.253zm-1.175-.317h.935l-.338-.455a.597.597 0 00-.059-.059.109.109 0 00-.072-.032.109.109 0 00-.072.032.342.342 0 00-.053.059l-.341.455zm2.355-.084c0-.043.016-.083.045-.113a.151.151 0 01.112-.045h1.638a.12.12 0 00.086-.037.12.12 0 000-.173.117.117 0 00-.086-.035h-2.013a.153.153 0 01-.112-.045.15.15 0 01-.046-.112c0-.043.016-.083.046-.112a.15.15 0 01.112-.045h1.997a.422.422 0 01.408.264.42.42 0 01-.072.453.433.433 0 01-.336.716h-1.997a.153.153 0 01-.112-.045.15.15 0 01-.046-.112c0-.043.016-.083.046-.112a.151.151 0 01.112-.045h2.013a.119.119 0 00.086-.035.115.115 0 00.037-.085.12.12 0 00-.037-.088.12.12 0 00-.086-.038h-1.638a.153.153 0 01-.112-.045.151.151 0 01-.045-.112zM23.794 15.166H13.85c-.736 0-1.332.597-1.332 1.332v23.105c0 .735.596 1.332 1.332 1.332h9.944c.735 0 1.332-.597 1.332-1.332V16.498c0-.735-.597-1.332-1.332-1.332zm-.218 16.285a.157.157 0 01-.157.157h-.645a.157.157 0 01-.157-.157v-6.8c0-.089.072-.158.157-.158h.645c.088 0 .157.072.157.157v6.801zm27.569-16.285h-9.944c-.733 0-1.332.6-1.332 1.332v23.105c0 .732.599 1.332 1.332 1.332h9.944c.733 0 1.332-.6 1.332-1.332V16.498c0-.732-.6-1.332-1.332-1.332zm-8.977 16.285a.157.157 0 01-.157.157h-.645a.157.157 0 01-.157-.157v-6.8c0-.089.072-.158.157-.158h.645c.087 0 .157.072.157.157v6.801zm-4.698-.767h-9.944c-.732 0-1.332.6-1.332 1.332v7.587c0 .733.6 1.332 1.332 1.332h9.945c.732 0 1.332-.6 1.332-1.332v-7.587c0-.732-.6-1.332-1.332-1.332zm-4.49 1.729a.157.157 0 01-.158.157h-.645a.157.157 0 01-.157-.157v-.645c0-.088.072-.157.157-.157h.645c.088 0 .157.072.157.157v.645zm4.49-2.797h-9.944c-.732 0-1.332-.6-1.332-1.332V16.499c0-.733.6-1.332 1.332-1.332h9.945c.732 0 1.332.599 1.332 1.332v11.785c0 .732-.6 1.332-1.332 1.332z" fill="#DAAA72"/><path fill="#fff" d="M11.917 49.834h42.25v3.25h-42.25z"/></svg>