<svg width="65" height="65" fill="none" xmlns="http://www.w3.org/2000/svg"><path d="M32.497 63.663c17.213 0 31.166-13.953 31.166-31.166 0-17.212-13.953-31.165-31.166-31.165-17.212 0-31.165 13.953-31.165 31.165 0 17.213 13.953 31.166 31.165 31.166z" stroke="#fff" stroke-width="1.557" stroke-miterlimit="10"/><path d="M22.462 46.657c0 .248-.045.5-.135.754a2.29 2.29 0 01-.39.695 2.114 2.114 0 01-.612.517 1.77 1.77 0 01-.82.226H13.83a.564.564 0 01-.383-.14.444.444 0 01-.158-.342v-3.42c0-.133.054-.248.158-.341a.555.555 0 01.383-.141h6.562c.322 0 .61.066.865.202a2.226 2.226 0 011.063 1.22c.096.258.141.514.141.77zm-8.09-1.228v2.453h5.784c.255 0 .466-.042.63-.125.166-.082.294-.186.39-.306.093-.12.157-.253.192-.397.034-.144.05-.277.05-.397s-.016-.253-.05-.397a1.037 1.037 0 00-.581-.703 1.408 1.408 0 00-.631-.125h-5.784v-.003zm13.751.786c.293 0 .551-.01.775-.035.224-.024.466-.088.72-.197.255-.106.546-.269.87-.482.328-.216.733-.514 1.22-.895a.651.651 0 01.384-.141.57.57 0 01.384.14.444.444 0 01.157.342.401.401 0 01-.061.21.67.67 0 01-.152.17c-.472.376-.895.685-1.266.93a6.95 6.95 0 01-1.052.584c-.33.144-.652.248-.967.306-.314.062-.652.09-1.012.09-.384 0-.733-.029-1.052-.084-.32-.056-.64-.16-.962-.307a7.473 7.473 0 01-1.036-.589 20.929 20.929 0 01-1.271-.93.619.619 0 01-.152-.17.385.385 0 01-.061-.21c0-.133.053-.248.157-.341a.555.555 0 01.384-.141c.074 0 .14.013.202.04.061.026.12.06.181.1.48.376.885.672 1.21.885.327.216.618.376.876.482.259.107.504.173.738.203.232.027.493.04.786.04zm-.698 2.152c0-.173.066-.322.202-.442a.724.724 0 01.496-.181c.194 0 .36.061.495.181a.57.57 0 01.203.442.569.569 0 01-.203.443.724.724 0 01-.495.18.724.724 0 01-.496-.18.568.568 0 01-.202-.443zm7.417-1.71c0 .12.016.253.05.397a1.046 1.046 0 00.576.703c.162.086.373.125.636.125h4.478c.256 0 .467-.042.632-.125a1.037 1.037 0 00.58-.703c.035-.144.051-.277.051-.397v-1.71c0-.133.053-.248.157-.341a.555.555 0 01.384-.141c.15 0 .277.048.383.14a.444.444 0 01.158.342v1.71c0 .256-.048.512-.142.77a2.28 2.28 0 01-.41.703c-.18.21-.397.384-.652.517a1.845 1.845 0 01-.866.202h-5.13a1.76 1.76 0 01-.821-.226 2.173 2.173 0 01-.613-.517 2.345 2.345 0 01-.39-.695 2.246 2.246 0 01-.135-.754v-1.71c0-.133.053-.248.157-.341a.555.555 0 01.384-.141c.149 0 .277.048.384.14a.444.444 0 01.157.342v1.71h-.008zm10.701.483a1.569 1.569 0 01-1.058-.395 1.308 1.308 0 01-.32-.424 1.154 1.154 0 01-.117-.522c0-.186.04-.362.118-.522a1.446 1.446 0 01.79-.711c.182-.07.376-.107.587-.107h6.83c.15 0 .277.048.384.141a.444.444 0 01.157.341.444.444 0 01-.157.341.554.554 0 01-.384.142H45.52a.45.45 0 00-.298.106.33.33 0 000 .527.442.442 0 00.298.113h6.223a1.609 1.609 0 011.07.394c.137.12.243.264.32.426.08.165.118.341.118.527 0 .187-.04.363-.118.523-.08.16-.186.3-.32.423-.135.12-.295.216-.479.283a1.724 1.724 0 01-.591.1h-6.82a.564.564 0 01-.383-.14.444.444 0 01-.158-.341c0-.134.054-.248.157-.341a.555.555 0 01.384-.142h6.865c.112 0 .21-.034.293-.106a.324.324 0 00.123-.256.36.36 0 00-.123-.272.424.424 0 00-.293-.111h-6.244v.002zM23.794 15.167H13.85c-.736 0-1.332.596-1.332 1.332v23.104c0 .735.596 1.332 1.332 1.332h9.944c.735 0 1.332-.597 1.332-1.332V16.499c0-.736-.597-1.332-1.332-1.332zm-.218 16.284a.157.157 0 01-.157.157h-.645a.158.158 0 01-.157-.157v-6.8c0-.089.072-.158.157-.158h.645c.088 0 .157.072.157.157v6.801zm27.569-16.284h-9.944c-.733 0-1.332.6-1.332 1.332v23.104c0 .733.599 1.332 1.332 1.332h9.944c.733 0 1.332-.6 1.332-1.332V16.499c0-.733-.6-1.332-1.332-1.332zM42.168 31.45a.157.157 0 01-.157.157h-.645a.158.158 0 01-.157-.157v-6.8c0-.089.072-.158.157-.158h.645c.087 0 .157.072.157.157v6.801zm-4.698-.766h-9.944c-.732 0-1.332.6-1.332 1.332v7.587c0 .733.6 1.332 1.332 1.332h9.945c.732 0 1.332-.6 1.332-1.332v-7.587c0-.732-.6-1.332-1.332-1.332zm-4.49 1.729a.157.157 0 01-.158.157h-.645a.157.157 0 01-.157-.157v-.645c0-.088.072-.157.157-.157h.645c.088 0 .157.072.157.157v.645zm4.49-2.797h-9.944c-.732 0-1.332-.6-1.332-1.332V16.499c0-.733.6-1.332 1.332-1.332h9.945c.732 0 1.332.6 1.332 1.332v11.785c0 .733-.6 1.332-1.332 1.332z" fill="#fff"/></svg>