<svg width="16" height="16" fill="none" xmlns="http://www.w3.org/2000/svg"><g clip-path="url(#clip0)"><path d="M7.678 9.84C6.306 8.712 5.39 7.32 4.908 6.528l-.36-.677c.126-.135 1.084-1.16 1.5-1.717.521-.7-.235-1.33-.235-1.33S3.684.675 3.199.253C2.714-.17 2.156.065 2.156.065 1.136.724.08 1.296.016 4.05c-.001 2.58 1.957 5.238 4.073 7.297 2.12 2.325 5.031 4.656 7.845 4.653 2.754-.063 3.326-1.12 3.985-2.139 0 0 .235-.558-.187-1.043-.423-.485-2.552-2.614-2.552-2.614s-.63-.757-1.33-.234c-.52.389-1.456 1.255-1.681 1.465 0 0-1.565-.833-2.49-1.595z" fill="url(#paint0_linear)"/></g><defs><linearGradient id="paint0_linear" x1=".017" y1="-1.29" x2="15.858" y2="-.323" gradientUnits="userSpaceOnUse"><stop offset=".166" stop-color="#DAAB72"/><stop offset=".98" stop-color="#E1C097"/></linearGradient><clipPath id="clip0"><path fill="#fff" d="M0 0h16v16H0z"/></clipPath></defs></svg>