<svg width="50" height="50" fill="none" xmlns="http://www.w3.org/2000/svg"><path d="M48.57 6.835a1.884 1.884 0 00-2.664-.003L23.299 29.38l-8.156-8.858a1.885 1.885 0 00-2.773 2.552l9.485 10.301a1.882 1.882 0 002.717.059L48.567 9.5a1.884 1.884 0 00.003-2.666z" fill="#fff" fill-opacity=".3"/><path d="M48.115 23.116c-1.04 0-1.884.843-1.884 1.884 0 11.707-9.524 21.231-21.231 21.231-11.707 0-21.231-9.524-21.231-21.231C3.769 13.293 13.293 3.769 25 3.769A1.884 1.884 0 1025 0C11.215 0 0 11.215 0 25s11.215 25 25 25 25-11.215 25-25c0-1.04-.844-1.884-1.885-1.884z" fill="#fff" fill-opacity=".3"/></svg>