<svg width="22" height="22" viewBox="0 0 22 22" fill="none" xmlns="http://www.w3.org/2000/svg">
<path d="M12.2149 11.0008L21.7478 1.46785C22.0834 1.13222 22.0834 0.588069 21.7478 0.252484C21.4122 -0.0831012 20.868 -0.0831442 20.5324 0.252484L10.9995 9.78543L1.4666 0.252484C1.13097 -0.0831442 0.586818 -0.0831442 0.251233 0.252484C-0.0843524 0.588112 -0.0843954 1.13227 0.251233 1.46785L9.78413 11.0008L0.251233 20.5337C-0.0843954 20.8693 -0.0843954 21.4135 0.251233 21.7491C0.419026 21.9169 0.638982 22.0007 0.858939 22.0007C1.0789 22.0007 1.29881 21.9169 1.46664 21.7491L10.9995 12.2162L20.5324 21.7491C20.7002 21.9169 20.9202 22.0007 21.1401 22.0007C21.3601 22.0007 21.58 21.9169 21.7478 21.7491C22.0834 21.4134 22.0834 20.8693 21.7478 20.5337L12.2149 11.0008Z" fill="#DAAA72"/>
</svg>
