<svg width="24" height="24" viewBox="0 0 24 24" fill="none" xmlns="http://www.w3.org/2000/svg">
<g clip-path="url(#clip0)">
<path d="M23.0625 11.0625H3.20824L6.49717 7.78949C6.86416 7.42424 6.86556 6.83067 6.50031 6.46368C6.13507 6.09665 5.54144 6.09529 5.17446 6.4605L0.27583 11.3355C0.275502 11.3358 0.275268 11.3361 0.274987 11.3364C-0.0910603 11.7016 -0.0922322 12.2971 0.274893 12.6636C0.275221 12.6639 0.275455 12.6642 0.275737 12.6645L5.17436 17.5395C5.5413 17.9046 6.13492 17.9034 6.50022 17.5363C6.86547 17.1693 6.86407 16.5757 6.49708 16.2105L3.20824 12.9375H23.0625C23.5803 12.9375 24 12.5178 24 12C24 11.4822 23.5803 11.0625 23.0625 11.0625Z" fill="white"/>
</g>
<defs>
<clipPath id="clip0">
<rect width="24" height="24" fill="white"/>
</clipPath>
</defs>
</svg>
