<svg width="16" height="16" viewBox="0 0 16 16" fill="none" xmlns="http://www.w3.org/2000/svg">
<path d="M7.99991 0C4.87525 0 2.33325 2.542 2.33325 5.66666C2.33325 8.68931 7.51391 15.576 7.7346 15.868C7.7966 15.9513 7.89594 16 7.99994 16C8.10394 16 8.20328 15.9513 8.26528 15.868C8.48594 15.576 13.6666 8.68934 13.6666 5.66666C13.6666 2.542 11.1246 0 7.99991 0ZM7.99991 8.66666C6.34591 8.66666 4.99991 7.32066 4.99991 5.66666C4.99991 4.01266 6.34591 2.66666 7.99991 2.66666C9.65391 2.66666 10.9999 4.01266 10.9999 5.66666C10.9999 7.32066 9.65391 8.66666 7.99991 8.66666Z" fill="url(#paint0_linear)"/>
<defs>
<linearGradient id="paint0_linear" x1="2.33325" y1="-1.29032" x2="13.5986" y2="-0.801886" gradientUnits="userSpaceOnUse">
<stop offset="0.16605" stop-color="#DAAB72"/>
<stop offset="0.979643" stop-color="#E1C097"/>
</linearGradient>
</defs>
</svg>
