<svg width="65" height="65" viewBox="0 0 65 65" fill="none" xmlns="http://www.w3.org/2000/svg">
<path d="M32.4974 63.6627C49.7096 63.6627 63.6628 49.7096 63.6628 32.4973C63.6628 15.2852 49.7096 1.33197 32.4974 1.33197C15.2852 1.33197 1.33203 15.2852 1.33203 32.4973C1.33203 49.7096 15.2852 63.6627 32.4974 63.6627Z" stroke="white" stroke-width="1.55738" stroke-miterlimit="10"/>
<path d="M22.4625 46.657C22.4625 46.9048 22.4172 47.1578 22.3266 47.4109C22.236 47.6667 22.1081 47.8984 21.9377 48.1062C21.7698 48.314 21.5647 48.4871 21.325 48.623C21.0852 48.7615 20.8108 48.8361 20.5045 48.8494H13.8313C13.6821 48.8494 13.5543 48.8015 13.4477 48.7083C13.3438 48.615 13.2905 48.5005 13.2905 48.3673V44.9468C13.2905 44.8136 13.3438 44.699 13.4477 44.6058C13.5516 44.5126 13.6795 44.4646 13.8313 44.4646H20.3926C20.7149 44.4646 21.0026 44.5312 21.2584 44.6671C21.5141 44.8003 21.7299 44.9734 21.911 45.1839C22.0922 45.3943 22.228 45.6287 22.3213 45.8871C22.4172 46.1455 22.4625 46.4013 22.4625 46.657ZM14.3721 45.4289V47.8824H20.1555C20.4112 47.8824 20.6217 47.8398 20.7868 47.7572C20.952 47.6746 21.0799 47.5708 21.1758 47.4509C21.269 47.331 21.3329 47.1978 21.3676 47.0539C21.4022 46.9101 21.4182 46.7769 21.4182 46.657C21.4182 46.5371 21.4022 46.4039 21.3676 46.2601C21.3329 46.1162 21.269 45.983 21.1758 45.8632C21.0825 45.7433 20.952 45.6394 20.7868 45.5568C20.6217 45.4742 20.4112 45.4316 20.1555 45.4316H14.3721V45.4289Z" fill="white"/>
<path d="M28.1229 46.2148C28.4159 46.2148 28.6743 46.2041 28.8981 46.1802C29.1219 46.1562 29.3643 46.0923 29.6174 45.983C29.8731 45.8765 30.1635 45.714 30.4885 45.5009C30.8161 45.2851 31.221 44.9867 31.7085 44.6058C31.8364 44.5126 31.9643 44.4646 32.0921 44.4646C32.2413 44.4646 32.3692 44.5126 32.4757 44.6058C32.5796 44.699 32.6329 44.8136 32.6329 44.9468C32.6329 45.0214 32.6116 45.0906 32.5716 45.1572C32.529 45.2238 32.4784 45.2824 32.4198 45.3277C31.9483 45.7033 31.5247 46.0123 31.1544 46.2574C30.7842 46.5025 30.4325 46.697 30.1022 46.8408C29.7719 46.9847 29.4495 47.0886 29.1352 47.1472C28.8208 47.2085 28.4825 47.2378 28.1229 47.2378C27.7393 47.2378 27.3903 47.2085 27.0706 47.1525C26.751 47.0966 26.4313 46.9927 26.1089 46.8462C25.7866 46.6996 25.4403 46.5025 25.0727 46.2574C24.7051 46.0123 24.2815 45.7033 23.802 45.3277C23.7407 45.2798 23.6901 45.2238 23.6501 45.1572C23.6075 45.0906 23.5889 45.0187 23.5889 44.9468C23.5889 44.8136 23.6421 44.699 23.746 44.6058C23.8499 44.5126 23.9778 44.4646 24.1296 44.4646C24.2042 44.4646 24.2708 44.4779 24.3321 44.5046C24.3934 44.5312 24.452 44.5658 24.5133 44.6058C24.9928 44.9814 25.3977 45.2771 25.7227 45.4902C26.0503 45.706 26.3407 45.8658 26.5991 45.9724C26.8575 46.0789 27.1026 46.1455 27.337 46.1748C27.5688 46.2015 27.8298 46.2148 28.1229 46.2148ZM27.4249 48.3673C27.4249 48.1941 27.4915 48.0449 27.6274 47.9251C27.7633 47.8052 27.9284 47.7439 28.1229 47.7439C28.3173 47.7439 28.4825 47.8052 28.6184 47.9251C28.7542 48.0449 28.8208 48.1941 28.8208 48.3673C28.8208 48.5404 28.7542 48.6896 28.6184 48.8095C28.4825 48.9294 28.3173 48.9906 28.1229 48.9906C27.9284 48.9906 27.7633 48.9294 27.6274 48.8095C27.4915 48.6896 27.4249 48.5404 27.4249 48.3673Z" fill="white"/>
<path d="M34.8416 46.657C34.8416 46.7769 34.8576 46.9101 34.8922 47.0539C34.9269 47.1978 34.9908 47.331 35.0841 47.4509C35.1773 47.5708 35.3052 47.6746 35.4677 47.7572C35.6302 47.8425 35.8406 47.8824 36.1043 47.8824H40.5824C40.8381 47.8824 41.0486 47.8398 41.2138 47.7572C41.3789 47.6746 41.5068 47.5708 41.6027 47.4509C41.6959 47.331 41.7599 47.1978 41.7945 47.0539C41.8291 46.9101 41.8451 46.7769 41.8451 46.657V44.9468C41.8451 44.8136 41.8984 44.699 42.0023 44.6058C42.1062 44.5126 42.234 44.4646 42.3859 44.4646C42.5351 44.4646 42.6629 44.5126 42.7695 44.6058C42.8734 44.699 42.9267 44.8136 42.9267 44.9468V46.657C42.9267 46.9128 42.8787 47.1685 42.7855 47.4269C42.6922 47.6853 42.5537 47.9197 42.3752 48.1302C42.1941 48.3406 41.9783 48.5138 41.7226 48.647C41.4668 48.7802 41.1791 48.8494 40.8568 48.8494H35.7261C35.417 48.8361 35.1453 48.7615 34.9056 48.623C34.6658 48.4845 34.4607 48.314 34.2929 48.1062C34.125 47.8984 33.9945 47.6667 33.9039 47.4109C33.8134 47.1552 33.7681 46.9048 33.7681 46.657V44.9468C33.7681 44.8136 33.8213 44.699 33.9252 44.6058C34.0291 44.5126 34.157 44.4646 34.3088 44.4646C34.458 44.4646 34.5859 44.5126 34.6925 44.6058C34.7963 44.699 34.8496 44.8136 34.8496 44.9468V46.657H34.8416Z" fill="white"/>
<path d="M45.5428 47.1392C45.3324 47.1392 45.1379 47.1046 44.9567 47.0326C44.7756 46.9634 44.6184 46.8675 44.4852 46.7449C44.3494 46.6251 44.2428 46.4839 44.1656 46.3214C44.0856 46.1615 44.0483 45.9857 44.0483 45.7992C44.0483 45.6128 44.0883 45.437 44.1656 45.2771C44.2455 45.1173 44.352 44.9761 44.4852 44.8536C44.6211 44.7337 44.7783 44.6378 44.9567 44.5658C45.1379 44.4966 45.3324 44.4593 45.5428 44.4593H52.3731C52.5223 44.4593 52.6502 44.5072 52.7567 44.6005C52.8606 44.6937 52.9139 44.8083 52.9139 44.9415C52.9139 45.0747 52.8606 45.1892 52.7567 45.2824C52.6529 45.3757 52.525 45.4236 52.3731 45.4236H45.5188C45.4069 45.4236 45.3057 45.4583 45.2205 45.5302C45.1352 45.5995 45.0899 45.69 45.0899 45.7966C45.0899 45.8978 45.1326 45.9831 45.2205 46.0576C45.3057 46.1322 45.4069 46.1695 45.5188 46.1695H51.7418C51.9522 46.1695 52.1494 46.2042 52.3332 46.2761C52.517 46.3454 52.6768 46.4413 52.8127 46.5638C52.9485 46.6837 53.0551 46.8275 53.1324 46.99C53.2123 47.1552 53.2496 47.331 53.2496 47.5175C53.2496 47.704 53.2096 47.8798 53.1324 48.0396C53.0524 48.1995 52.9459 48.3406 52.8127 48.4632C52.6768 48.5831 52.517 48.679 52.3332 48.7456C52.1494 48.8122 51.9522 48.8468 51.7418 48.8468H44.9221C44.7729 48.8468 44.6451 48.7988 44.5385 48.7056C44.4346 48.6124 44.3813 48.4978 44.3813 48.3646C44.3813 48.2314 44.4346 48.1169 44.5385 48.0236C44.6424 47.9304 44.7703 47.8824 44.9221 47.8824H51.7871C51.899 47.8824 51.9975 47.8478 52.0801 47.7759C52.1627 47.7066 52.2026 47.6187 52.2026 47.5201C52.2026 47.4136 52.16 47.323 52.0801 47.2484C51.9975 47.1738 51.899 47.1365 51.7871 47.1365H45.5428V47.1392Z" fill="white"/>
<path d="M23.7943 15.1667H13.8498C13.1145 15.1667 12.5178 15.7634 12.5178 16.4986V39.6029C12.5178 40.3382 13.1145 40.9349 13.8498 40.9349H23.7943C24.5295 40.9349 25.1262 40.3382 25.1262 39.6029V16.4986C25.1262 15.7634 24.5295 15.1667 23.7943 15.1667ZM23.5758 31.4513C23.5758 31.5392 23.5039 31.6085 23.4186 31.6085H22.774C22.6861 31.6085 22.6168 31.5365 22.6168 31.4513V24.6503C22.6168 24.5624 22.6887 24.4931 22.774 24.4931H23.4186C23.5066 24.4931 23.5758 24.565 23.5758 24.6503V31.4513Z" fill="white"/>
<path d="M51.1451 15.1667H41.2006C40.468 15.1667 39.8687 15.7661 39.8687 16.4986V39.6029C39.8687 40.3355 40.468 40.9349 41.2006 40.9349H51.1451C51.8777 40.9349 52.4771 40.3355 52.4771 39.6029V16.4986C52.4771 15.7661 51.8777 15.1667 51.1451 15.1667ZM42.1676 31.4513C42.1676 31.5392 42.0957 31.6085 42.0105 31.6085H41.3658C41.2779 31.6085 41.2086 31.5365 41.2086 31.4513V24.6503C41.2086 24.5624 41.2805 24.4931 41.3658 24.4931H42.0105C42.0984 24.4931 42.1676 24.565 42.1676 24.6503V31.4513Z" fill="white"/>
<path d="M37.4708 30.6841H27.5263C26.7937 30.6841 26.1943 31.2835 26.1943 32.016V39.6029C26.1943 40.3355 26.7937 40.9349 27.5263 40.9349H37.4708C38.2034 40.9349 38.8027 40.3355 38.8027 39.6029V32.016C38.8027 31.2835 38.2034 30.6841 37.4708 30.6841ZM32.9794 32.413C32.9794 32.5009 32.9075 32.5701 32.8222 32.5701H32.1775C32.0896 32.5701 32.0204 32.4982 32.0204 32.413V31.7683C32.0204 31.6804 32.0923 31.6111 32.1775 31.6111H32.8222C32.9101 31.6111 32.9794 31.6831 32.9794 31.7683V32.413Z" fill="white"/>
<path d="M37.4708 29.6158H27.5263C26.7937 29.6158 26.1943 29.0165 26.1943 28.2839V16.4986C26.1943 15.7661 26.7937 15.1667 27.5263 15.1667H37.4708C38.2034 15.1667 38.8027 15.7661 38.8027 16.4986V28.2839C38.8027 29.0165 38.2034 29.6158 37.4708 29.6158Z" fill="white"/>
</svg>
