<svg width="65" height="65" viewBox="0 0 65 65" fill="none" xmlns="http://www.w3.org/2000/svg">
<path d="M32.4974 63.6628C49.7096 63.6628 63.6628 49.7096 63.6628 32.4974C63.6628 15.2852 49.7096 1.33203 32.4974 1.33203C15.2852 1.33203 1.33203 15.2852 1.33203 32.4974C1.33203 49.7096 15.2852 63.6628 32.4974 63.6628Z" stroke="#DAAA72" stroke-width="1.55738" stroke-miterlimit="10"/>
<path d="M22.4625 46.6573C22.4625 46.905 22.4172 47.1581 22.3266 47.4112C22.236 47.6669 22.1081 47.8987 21.9377 48.1064C21.7698 48.3142 21.5647 48.4874 21.325 48.6233C21.0852 48.7618 20.8108 48.8364 20.5045 48.8497H13.8313C13.6821 48.8497 13.5543 48.8017 13.4477 48.7085C13.3438 48.6153 13.2905 48.5007 13.2905 48.3675V44.947C13.2905 44.8138 13.3438 44.6993 13.4477 44.606C13.5516 44.5128 13.6795 44.4648 13.8313 44.4648H20.3926C20.7149 44.4648 21.0026 44.5314 21.2584 44.6673C21.5141 44.8005 21.7299 44.9737 21.911 45.1841C22.0922 45.3946 22.228 45.629 22.3213 45.8874C22.4172 46.1458 22.4625 46.4015 22.4625 46.6573ZM14.3721 45.4292V47.8827H20.1555C20.4112 47.8827 20.6217 47.8401 20.7868 47.7575C20.952 47.6749 21.0799 47.571 21.1758 47.4511C21.269 47.3312 21.3329 47.198 21.3676 47.0542C21.4022 46.9103 21.4182 46.7771 21.4182 46.6573C21.4182 46.5374 21.4022 46.4042 21.3676 46.2603C21.3329 46.1165 21.269 45.9833 21.1758 45.8634C21.0825 45.7435 20.952 45.6396 20.7868 45.5571C20.6217 45.4745 20.4112 45.4319 20.1555 45.4319H14.3721V45.4292Z" fill="#DAAA72"/>
<path d="M28.1229 46.2151C28.4159 46.2151 28.6743 46.2044 28.8981 46.1804C29.1219 46.1564 29.3643 46.0925 29.6174 45.9833C29.8731 45.8767 30.1635 45.7142 30.4885 45.5011C30.8161 45.2853 31.221 44.987 31.7085 44.606C31.8364 44.5128 31.9643 44.4648 32.0921 44.4648C32.2413 44.4648 32.3692 44.5128 32.4757 44.606C32.5796 44.6993 32.6329 44.8138 32.6329 44.947C32.6329 45.0216 32.6116 45.0909 32.5716 45.1575C32.529 45.2241 32.4784 45.2827 32.4198 45.328C31.9483 45.7036 31.5247 46.0126 31.1544 46.2577C30.7842 46.5028 30.4325 46.6972 30.1022 46.8411C29.7719 46.9849 29.4495 47.0888 29.1352 47.1474C28.8208 47.2087 28.4825 47.238 28.1229 47.238C27.7393 47.238 27.3903 47.2087 27.0706 47.1528C26.751 47.0968 26.4313 46.9929 26.1089 46.8464C25.7866 46.6999 25.4403 46.5028 25.0727 46.2577C24.7051 46.0126 24.2815 45.7036 23.802 45.328C23.7407 45.28 23.6901 45.2241 23.6501 45.1575C23.6075 45.0909 23.5889 45.0189 23.5889 44.947C23.5889 44.8138 23.6421 44.6993 23.746 44.606C23.8499 44.5128 23.9778 44.4648 24.1296 44.4648C24.2042 44.4648 24.2708 44.4782 24.3321 44.5048C24.3934 44.5314 24.452 44.5661 24.5133 44.606C24.9928 44.9816 25.3977 45.2773 25.7227 45.4905C26.0503 45.7062 26.3407 45.8661 26.5991 45.9726C26.8575 46.0792 27.1026 46.1458 27.337 46.1751C27.5688 46.2017 27.8298 46.2151 28.1229 46.2151ZM27.4249 48.3675C27.4249 48.1944 27.4915 48.0452 27.6274 47.9253C27.7633 47.8054 27.9284 47.7441 28.1229 47.7441C28.3173 47.7441 28.4825 47.8054 28.6184 47.9253C28.7542 48.0452 28.8208 48.1944 28.8208 48.3675C28.8208 48.5407 28.7542 48.6898 28.6184 48.8097C28.4825 48.9296 28.3173 48.9909 28.1229 48.9909C27.9284 48.9909 27.7633 48.9296 27.6274 48.8097C27.4915 48.6898 27.4249 48.5407 27.4249 48.3675Z" fill="#DAAA72"/>
<path d="M34.8416 46.6573C34.8416 46.7771 34.8576 46.9103 34.8922 47.0542C34.9269 47.198 34.9908 47.3312 35.0841 47.4511C35.1773 47.571 35.3052 47.6749 35.4677 47.7575C35.6302 47.8427 35.8406 47.8827 36.1043 47.8827H40.5824C40.8381 47.8827 41.0486 47.8401 41.2138 47.7575C41.3789 47.6749 41.5068 47.571 41.6027 47.4511C41.6959 47.3312 41.7599 47.198 41.7945 47.0542C41.8291 46.9103 41.8451 46.7771 41.8451 46.6573V44.947C41.8451 44.8138 41.8984 44.6993 42.0023 44.606C42.1062 44.5128 42.234 44.4648 42.3859 44.4648C42.5351 44.4648 42.6629 44.5128 42.7695 44.606C42.8734 44.6993 42.9267 44.8138 42.9267 44.947V46.6573C42.9267 46.913 42.8787 47.1687 42.7855 47.4271C42.6922 47.6855 42.5537 47.92 42.3752 48.1304C42.1941 48.3409 41.9783 48.514 41.7226 48.6472C41.4668 48.7804 41.1791 48.8497 40.8568 48.8497H35.7261C35.417 48.8364 35.1453 48.7618 34.9056 48.6233C34.6658 48.4847 34.4607 48.3142 34.2929 48.1064C34.125 47.8987 33.9945 47.6669 33.9039 47.4112C33.8134 47.1554 33.7681 46.905 33.7681 46.6573V44.947C33.7681 44.8138 33.8213 44.6993 33.9252 44.606C34.0291 44.5128 34.157 44.4648 34.3088 44.4648C34.458 44.4648 34.5859 44.5128 34.6925 44.606C34.7963 44.6993 34.8496 44.8138 34.8496 44.947V46.6573H34.8416Z" fill="#DAAA72"/>
<path d="M45.5428 47.1394C45.3324 47.1394 45.1379 47.1048 44.9567 47.0328C44.7756 46.9636 44.6184 46.8677 44.4852 46.7451C44.3494 46.6253 44.2428 46.4841 44.1656 46.3216C44.0856 46.1617 44.0483 45.9859 44.0483 45.7994C44.0483 45.613 44.0883 45.4371 44.1656 45.2773C44.2455 45.1175 44.352 44.9763 44.4852 44.8537C44.6211 44.7339 44.7783 44.638 44.9567 44.566C45.1379 44.4968 45.3324 44.4595 45.5428 44.4595H52.3731C52.5223 44.4595 52.6502 44.5074 52.7567 44.6007C52.8606 44.6939 52.9139 44.8084 52.9139 44.9416C52.9139 45.0748 52.8606 45.1894 52.7567 45.2826C52.6529 45.3759 52.525 45.4238 52.3731 45.4238H45.5188C45.4069 45.4238 45.3057 45.4584 45.2205 45.5304C45.1352 45.5996 45.0899 45.6902 45.0899 45.7968C45.0899 45.898 45.1326 45.9832 45.2205 46.0578C45.3057 46.1324 45.4069 46.1697 45.5188 46.1697H51.7418C51.9522 46.1697 52.1494 46.2043 52.3332 46.2763C52.517 46.3455 52.6768 46.4414 52.8127 46.564C52.9485 46.6839 53.0551 46.8277 53.1324 46.9902C53.2123 47.1554 53.2496 47.3312 53.2496 47.5177C53.2496 47.7041 53.2096 47.88 53.1324 48.0398C53.0524 48.1996 52.9459 48.3408 52.8127 48.4634C52.6768 48.5832 52.517 48.6791 52.3332 48.7457C52.1494 48.8123 51.9522 48.847 51.7418 48.847H44.9221C44.7729 48.847 44.6451 48.799 44.5385 48.7058C44.4346 48.6125 44.3813 48.498 44.3813 48.3648C44.3813 48.2316 44.4346 48.1171 44.5385 48.0238C44.6424 47.9306 44.7703 47.8826 44.9221 47.8826H51.7871C51.899 47.8826 51.9975 47.848 52.0801 47.7761C52.1627 47.7068 52.2026 47.6189 52.2026 47.5203C52.2026 47.4138 52.16 47.3232 52.0801 47.2486C51.9975 47.174 51.899 47.1367 51.7871 47.1367H45.5428V47.1394Z" fill="#DAAA72"/>
<path d="M16.2287 52.0585C16.2287 52.1038 16.2127 52.1411 16.1834 52.1704C16.1514 52.2023 16.1141 52.2156 16.0715 52.2156C16.0262 52.2156 15.9889 52.1997 15.9596 52.1704C15.9276 52.1384 15.9143 52.1011 15.9143 52.0585V51.3392C15.9143 51.2486 15.909 51.2034 15.8983 51.2034C15.8903 51.2034 15.8584 51.2327 15.8051 51.2913L15.0805 52.1144C15.0512 52.1464 15.0166 52.173 14.9739 52.189C14.9313 52.205 14.886 52.213 14.8381 52.213C14.7901 52.213 14.7448 52.205 14.7022 52.189C14.6596 52.173 14.625 52.1491 14.5957 52.1144L13.8711 51.2913C13.8205 51.2327 13.7885 51.2034 13.7778 51.2034C13.7672 51.2034 13.7619 51.2486 13.7619 51.3392V52.0585C13.7619 52.1038 13.7459 52.1411 13.7166 52.1704C13.6846 52.2023 13.6473 52.2156 13.6047 52.2156C13.5594 52.2156 13.5221 52.1997 13.4928 52.1704C13.4608 52.1384 13.4475 52.1011 13.4475 52.0585V51.0968C13.4475 51.0089 13.4715 50.9343 13.5221 50.873C13.5727 50.8118 13.642 50.7798 13.7299 50.7798C13.7832 50.7798 13.8311 50.7931 13.8711 50.8197C13.9137 50.8464 13.951 50.8784 13.9856 50.9156L14.7448 51.7788C14.7555 51.7894 14.7688 51.8001 14.7848 51.8134C14.8008 51.8267 14.8194 51.832 14.8354 51.832C14.8541 51.832 14.8701 51.8267 14.886 51.8134C14.902 51.8001 14.9153 51.7894 14.926 51.7788L15.6799 50.9156H15.6826C15.7145 50.873 15.7518 50.8411 15.7944 50.8171C15.8371 50.7931 15.8877 50.7798 15.9383 50.7798C16.0262 50.7798 16.0955 50.8118 16.1461 50.873C16.1967 50.9343 16.2207 51.0089 16.2207 51.0968V52.0585H16.2287Z" fill="#DAAA72"/>
<path d="M16.5591 50.9399C16.5591 50.8973 16.5751 50.8573 16.6044 50.828C16.6363 50.796 16.6736 50.7827 16.7163 50.7827H19.0525C19.0952 50.7827 19.1351 50.7987 19.1644 50.828C19.1964 50.86 19.2097 50.8973 19.2097 50.9399C19.2097 50.9852 19.1937 51.0225 19.1644 51.0518C19.1324 51.0837 19.0952 51.0971 19.0525 51.0971H16.7163C16.671 51.0971 16.6337 51.0811 16.6044 51.0518C16.5724 51.0198 16.5591 50.9825 16.5591 50.9399ZM16.9613 52.2186C16.9134 52.2186 16.8654 52.2079 16.8175 52.1866C16.7695 52.1653 16.7269 52.136 16.6896 52.0987C16.6523 52.0614 16.6204 52.0161 16.5964 51.9628C16.5724 51.9096 16.5591 51.8509 16.5591 51.7843V51.4887C16.5591 51.43 16.5751 51.3901 16.6097 51.3688C16.6443 51.3501 16.6976 51.3395 16.7695 51.3395H18.9806C19.0232 51.3395 19.0632 51.3555 19.0925 51.3848C19.1245 51.4167 19.1378 51.454 19.1378 51.4966C19.1378 51.5419 19.1218 51.5792 19.0925 51.6085C19.0605 51.6405 19.0232 51.6538 18.9806 51.6538H16.8734V51.8163C16.8734 51.8376 16.8814 51.8563 16.9027 51.8749C16.9214 51.8909 16.9454 51.8989 16.9773 51.8989H19.0552C19.0978 51.8989 19.1378 51.9149 19.1671 51.9442C19.199 51.9762 19.2124 52.0134 19.2124 52.0561C19.2124 52.1014 19.1964 52.1387 19.1671 52.168C19.1351 52.1999 19.0978 52.2132 19.0552 52.2132H16.9613V52.2186Z" fill="#DAAA72"/>
<path d="M19.54 50.9399C19.54 50.8973 19.556 50.8573 19.5853 50.828C19.6173 50.796 19.6546 50.7827 19.6972 50.7827C19.7078 50.7827 19.7185 50.7827 19.7292 50.7854H21.823C21.8656 50.7854 21.9056 50.8014 21.9349 50.8307C21.9669 50.8626 21.9802 50.8999 21.9802 50.9426C21.9802 50.9878 21.9642 51.0251 21.9349 51.0544C21.9029 51.0864 21.8656 51.0997 21.823 51.0997H19.8544V51.2196C19.8544 51.2516 19.865 51.2809 19.8837 51.3022C19.9023 51.3235 19.9263 51.3368 19.9556 51.3421H21.6685C21.7298 51.3421 21.7884 51.3528 21.8417 51.3768C21.8949 51.4007 21.9429 51.43 21.9828 51.47C22.0228 51.51 22.0548 51.5553 22.0787 51.6085C22.1027 51.6618 22.1134 51.7177 22.1134 51.779C22.1134 51.8403 22.1027 51.8989 22.0787 51.9495C22.0548 52.0028 22.0228 52.0481 21.9828 52.088C21.9429 52.128 21.8949 52.16 21.8417 52.1813C21.7884 52.2053 21.7298 52.2159 21.6685 52.2159H19.6945C19.6492 52.2159 19.6119 52.1999 19.5826 52.1706C19.5507 52.1387 19.5374 52.1014 19.5374 52.0587C19.5374 52.0454 19.5374 52.0348 19.54 52.0214C19.5374 52.0108 19.5374 51.9975 19.5374 51.9841V50.9399H19.54ZM19.857 51.6512V51.9016H21.6871C21.7191 51.9016 21.7484 51.8882 21.7751 51.8643C21.799 51.8403 21.8123 51.811 21.8123 51.779C21.8123 51.7444 21.799 51.7151 21.7751 51.6911C21.7511 51.6671 21.7218 51.6565 21.6871 51.6565H19.9369C19.9076 51.6565 19.881 51.6538 19.857 51.6512Z" fill="#DAAA72"/>
<path d="M22.449 50.9399C22.449 50.8973 22.465 50.8573 22.4943 50.828C22.5262 50.796 22.5635 50.7827 22.6061 50.7827H24.9424C24.985 50.7827 25.025 50.7987 25.0543 50.828C25.0863 50.86 25.0996 50.8973 25.0996 50.9399C25.0996 50.9852 25.0836 51.0225 25.0543 51.0518C25.0223 51.0837 24.985 51.0971 24.9424 51.0971H22.6061C22.5609 51.0971 22.5236 51.0811 22.4943 51.0518C22.4623 51.0198 22.449 50.9825 22.449 50.9399ZM22.8512 52.2186C22.8033 52.2186 22.7553 52.2079 22.7074 52.1866C22.6594 52.1653 22.6168 52.136 22.5795 52.0987C22.5422 52.0614 22.5102 52.0161 22.4863 51.9628C22.4623 51.9096 22.449 51.8509 22.449 51.7843V51.4887C22.449 51.43 22.465 51.3901 22.4996 51.3688C22.5342 51.3501 22.5875 51.3395 22.6594 51.3395H24.8705C24.9131 51.3395 24.9531 51.3555 24.9824 51.3848C25.0143 51.4167 25.0277 51.454 25.0277 51.4966C25.0277 51.5419 25.0117 51.5792 24.9824 51.6085C24.9504 51.6405 24.9131 51.6538 24.8705 51.6538H22.7633V51.8163C22.7633 51.8376 22.7713 51.8563 22.7926 51.8749C22.8113 51.8909 22.8352 51.8989 22.8672 51.8989H24.9451C24.9877 51.8989 25.0277 51.9149 25.057 51.9442C25.0889 51.9762 25.1023 52.0134 25.1023 52.0561C25.1023 52.1014 25.0863 52.1387 25.057 52.168C25.025 52.1999 24.9877 52.2132 24.9451 52.2132H22.8512V52.2186Z" fill="#DAAA72"/>
<path d="M25.7123 52.1572C25.6804 52.1972 25.6377 52.2158 25.5898 52.2158C25.5445 52.2158 25.5072 52.1999 25.4779 52.1705C25.4459 52.1386 25.4326 52.1013 25.4326 52.0587C25.4326 52.0187 25.4433 51.9867 25.4646 51.9628L26.2664 50.8839C26.3037 50.8333 26.3543 50.7933 26.4156 50.7613C26.4769 50.7294 26.5435 50.7134 26.6127 50.7134C26.6793 50.7134 26.7406 50.7267 26.8019 50.756C26.8605 50.7853 26.9084 50.8253 26.9457 50.8759L27.7476 51.9468C27.7609 51.9628 27.7716 51.9787 27.7795 51.9974C27.7875 52.016 27.7929 52.0374 27.7929 52.0587C27.7929 52.1039 27.7769 52.1412 27.7476 52.1705C27.7156 52.2025 27.6783 52.2158 27.6357 52.2158C27.5824 52.2158 27.5425 52.1945 27.5105 52.1519L26.7433 51.1263C26.7273 51.1076 26.7086 51.089 26.6847 51.0677C26.6607 51.0464 26.6367 51.0357 26.6127 51.0357C26.5888 51.0357 26.5648 51.0464 26.5408 51.0677C26.5168 51.089 26.5009 51.1076 26.4875 51.1263L25.7123 52.1572Z" fill="#DAAA72"/>
<path d="M28.2802 52.2186C28.2349 52.2186 28.1976 52.2026 28.1683 52.1733C28.1364 52.1413 28.123 52.104 28.123 52.0614V50.9399C28.123 50.8973 28.139 50.8573 28.1683 50.828C28.2003 50.796 28.2376 50.7827 28.2802 50.7827C28.3228 50.7827 28.3575 50.7987 28.3894 50.828C28.4214 50.86 28.4374 50.8973 28.4374 50.9399V51.3421H30.2542C30.3155 51.3421 30.3741 51.3528 30.4274 51.3768C30.4806 51.4007 30.5286 51.43 30.5685 51.47C30.6085 51.51 30.6405 51.5553 30.6644 51.6085C30.6884 51.6618 30.6991 51.7177 30.6991 51.779C30.6991 51.8403 30.6884 51.8989 30.6644 51.9495C30.6405 52.0028 30.6085 52.0481 30.5685 52.088C30.5286 52.128 30.4806 52.16 30.4274 52.1813C30.3741 52.2052 30.3155 52.2159 30.2542 52.2159H28.2802V52.2186ZM30.2675 51.9016C30.2995 51.9016 30.3288 51.8882 30.3554 51.8643C30.3794 51.8403 30.3927 51.811 30.3927 51.779C30.3927 51.7444 30.3794 51.7151 30.3554 51.6911C30.3315 51.6671 30.3021 51.6565 30.2675 51.6565H28.4374V51.9016H30.2675Z" fill="#DAAA72"/>
<path d="M35.0921 52.0585C35.0921 52.1038 35.0762 52.1411 35.0469 52.1704C35.0149 52.2023 34.9776 52.2156 34.935 52.2156C34.8897 52.2156 34.8524 52.1997 34.8231 52.1704C34.7911 52.1384 34.7778 52.1011 34.7778 52.0585V51.6562H32.8305V52.0585C32.8305 52.1038 32.8145 52.1411 32.7852 52.1704C32.7532 52.2023 32.7159 52.2156 32.6733 52.2156C32.628 52.2156 32.5907 52.1997 32.5614 52.1704C32.5294 52.1384 32.5161 52.1011 32.5161 52.0585V50.937C32.5161 50.8943 32.5321 50.8544 32.5614 50.8251C32.5934 50.7931 32.6307 50.7798 32.6733 50.7798C32.7159 50.7798 32.7559 50.7958 32.7852 50.8251C32.8171 50.857 32.8305 50.8943 32.8305 50.937V51.3392H34.7778V50.937C34.7778 50.8943 34.7938 50.8544 34.8231 50.8251C34.855 50.7931 34.8923 50.7798 34.935 50.7798C34.9776 50.7798 35.0175 50.7958 35.0469 50.8251C35.0788 50.857 35.0921 50.8943 35.0921 50.937V52.0585Z" fill="#DAAA72"/>
<path d="M37.3084 51.9013H35.8939L35.7021 52.1597C35.6701 52.1996 35.6275 52.2183 35.5795 52.2183C35.5342 52.2183 35.497 52.2023 35.4677 52.173C35.4357 52.141 35.4224 52.1037 35.4224 52.0611C35.4224 52.0211 35.433 51.9892 35.4543 51.9652L36.2562 50.8863C36.2935 50.8357 36.3441 50.7957 36.4054 50.7638C36.4666 50.7318 36.5332 50.7158 36.6025 50.7158C36.6691 50.7158 36.7304 50.7291 36.7916 50.7584C36.8502 50.7877 36.8982 50.8277 36.9355 50.8783L37.7373 51.9492C37.7506 51.9652 37.7613 51.9812 37.7693 51.9998C37.7773 52.0185 37.7826 52.0398 37.7826 52.0611C37.7826 52.1064 37.7666 52.1437 37.7373 52.173C37.7054 52.205 37.6681 52.2183 37.6254 52.2183C37.5722 52.2183 37.5322 52.197 37.5002 52.1543L37.3084 51.9013ZM36.1336 51.5843H37.0687L36.7304 51.1287C36.7144 51.1101 36.6957 51.0914 36.6717 51.0701C36.6478 51.0488 36.6238 51.0382 36.5998 51.0382C36.5758 51.0382 36.5519 51.0488 36.5279 51.0701C36.5039 51.0914 36.4879 51.1101 36.4746 51.1287L36.1336 51.5843Z" fill="#DAAA72"/>
<path d="M39.9699 51.4993C39.9699 51.4567 39.9858 51.4167 40.0151 51.3874C40.0471 51.3555 40.0844 51.3421 40.127 51.3421H41.7653C41.7973 51.3421 41.8266 51.3288 41.8506 51.3048C41.8746 51.2809 41.8879 51.2516 41.8879 51.2169C41.8879 51.185 41.8746 51.1557 41.8506 51.1317C41.8266 51.1077 41.7973 51.0971 41.7653 51.0971H39.7514C39.7061 51.0971 39.6688 51.0811 39.6395 51.0518C39.6076 51.0198 39.5942 50.9825 39.5942 50.9399C39.5942 50.8973 39.6102 50.8573 39.6395 50.828C39.6715 50.796 39.7088 50.7827 39.7514 50.7827H41.7494C41.8106 50.7827 41.8692 50.7934 41.9225 50.8147C41.9758 50.836 42.0237 50.868 42.0637 50.9079C42.1037 50.9479 42.1356 50.9932 42.1569 51.0464C42.1809 51.0997 42.1916 51.1557 42.1916 51.2169C42.1916 51.2729 42.1809 51.3235 42.1623 51.3714C42.1436 51.4194 42.117 51.462 42.085 51.4993C42.1543 51.5819 42.1916 51.6778 42.1916 51.7817C42.1916 51.843 42.1809 51.9016 42.1569 51.9522C42.133 52.0028 42.1037 52.0507 42.0637 52.0907C42.0237 52.1307 41.9785 52.16 41.9225 52.1839C41.8692 52.2052 41.8106 52.2159 41.7494 52.2159H39.7514C39.7061 52.2159 39.6688 52.1999 39.6395 52.1706C39.6076 52.1387 39.5942 52.1014 39.5942 52.0587C39.5942 52.0161 39.6102 51.9762 39.6395 51.9468C39.6715 51.9149 39.7088 51.9016 39.7514 51.9016H41.7653C41.7973 51.9016 41.8266 51.8909 41.8506 51.8669C41.8746 51.843 41.8879 51.8163 41.8879 51.7817C41.8879 51.7471 41.8746 51.7178 41.8506 51.6938C41.8266 51.6698 41.7973 51.6565 41.7653 51.6565H40.127C40.0817 51.6565 40.0444 51.6405 40.0151 51.6112C39.9858 51.5792 39.9699 51.5419 39.9699 51.4993Z" fill="#DAAA72"/>
<path d="M44.4078 51.9013H42.9932L42.8014 52.1597C42.7695 52.1996 42.7269 52.2183 42.6789 52.2183C42.6336 52.2183 42.5963 52.2023 42.567 52.173C42.5351 52.141 42.5217 52.1037 42.5217 52.0611C42.5217 52.0211 42.5324 51.9892 42.5537 51.9652L43.3555 50.8863C43.3928 50.8357 43.4435 50.7957 43.5047 50.7638C43.566 50.7318 43.6326 50.7158 43.7019 50.7158C43.7685 50.7158 43.8297 50.7291 43.891 50.7584C43.9496 50.7877 43.9975 50.8277 44.0348 50.8783L44.8367 51.9492C44.85 51.9652 44.8607 51.9812 44.8687 51.9998C44.8766 52.0185 44.882 52.0398 44.882 52.0611C44.882 52.1064 44.866 52.1437 44.8367 52.173C44.8047 52.205 44.7674 52.2183 44.7248 52.2183C44.6715 52.2183 44.6316 52.197 44.5996 52.1543L44.4078 51.9013ZM43.233 51.5843H44.168L43.8297 51.1287C43.8137 51.1101 43.7951 51.0914 43.7711 51.0701C43.7471 51.0488 43.7232 51.0382 43.6992 51.0382C43.6752 51.0382 43.6512 51.0488 43.6273 51.0701C43.6033 51.0914 43.5873 51.1101 43.574 51.1287L43.233 51.5843Z" fill="#DAAA72"/>
<path d="M45.5238 51.3392H46.2857C46.4003 51.3392 46.5122 51.3232 46.6214 51.2939C46.7306 51.2646 46.8372 51.2246 46.9437 51.1767C47.0476 51.1287 47.1488 51.0728 47.2447 51.0115C47.3406 50.9502 47.4312 50.8863 47.5191 50.8224C47.5564 50.7904 47.5937 50.7771 47.631 50.7771C47.6736 50.7771 47.7136 50.7931 47.7429 50.8224C47.7749 50.8543 47.7882 50.8916 47.7882 50.9342C47.7882 50.9662 47.7802 50.9929 47.7615 51.0142C47.7429 51.0381 47.7242 51.0568 47.6976 51.0754C47.6417 51.1207 47.5857 51.1607 47.5324 51.198C47.4792 51.2353 47.4259 51.2726 47.3753 51.3045C47.322 51.3365 47.2687 51.3685 47.2128 51.4004C47.1568 51.4324 47.0956 51.4617 47.0343 51.4937C47.0982 51.5256 47.1568 51.5549 47.2128 51.5869C47.2687 51.6189 47.322 51.6508 47.3753 51.6828C47.4285 51.7148 47.4818 51.7521 47.5324 51.7894C47.5857 51.8267 47.639 51.8693 47.6976 51.9119C47.7216 51.9306 47.7429 51.9492 47.7615 51.9732C47.7802 51.9972 47.7882 52.0238 47.7882 52.0531C47.7882 52.0984 47.7722 52.1357 47.7429 52.165C47.7109 52.1969 47.6736 52.2103 47.631 52.2103C47.5937 52.2103 47.5564 52.1943 47.5191 52.165C47.4285 52.0984 47.3353 52.0345 47.2394 51.9732C47.1435 51.9119 47.0449 51.856 46.941 51.808C46.8372 51.7601 46.7306 51.7201 46.6214 51.6935C46.5122 51.6642 46.4003 51.6508 46.2857 51.6508H45.5238V52.0531C45.5238 52.0984 45.5079 52.1357 45.4786 52.165C45.4466 52.1969 45.412 52.2103 45.3693 52.2103C45.324 52.2103 45.2868 52.1943 45.2574 52.165C45.2255 52.133 45.2122 52.0957 45.2122 52.0531V50.9316C45.2122 50.889 45.2281 50.849 45.2574 50.8197C45.2894 50.7877 45.324 50.7744 45.3667 50.7744C45.4093 50.7744 45.4492 50.7904 45.4786 50.8197C45.5105 50.8517 45.5238 50.889 45.5238 50.9316V51.3392Z" fill="#DAAA72"/>
<path d="M50.0047 51.9013H48.5902L48.3984 52.1597C48.3664 52.1996 48.3238 52.2183 48.2758 52.2183C48.2305 52.2183 48.1932 52.2023 48.1639 52.173C48.132 52.141 48.1187 52.1037 48.1187 52.0611C48.1187 52.0211 48.1293 51.9892 48.1506 51.9652L48.9525 50.8863C48.9898 50.8357 49.0404 50.7957 49.1016 50.7638C49.1629 50.7318 49.2295 50.7158 49.2988 50.7158C49.3654 50.7158 49.4266 50.7291 49.4879 50.7584C49.5465 50.7877 49.5945 50.8277 49.6318 50.8783L50.4336 51.9492C50.4469 51.9652 50.4576 51.9812 50.4656 51.9998C50.4736 52.0185 50.4789 52.0398 50.4789 52.0611C50.4789 52.1064 50.4629 52.1437 50.4336 52.173C50.4016 52.205 50.3644 52.2183 50.3217 52.2183C50.2685 52.2183 50.2285 52.197 50.1965 52.1543L50.0047 51.9013ZM48.8299 51.5843H49.765L49.4266 51.1287C49.4107 51.1101 49.392 51.0914 49.368 51.0701C49.3441 51.0488 49.3201 51.0382 49.2961 51.0382C49.2721 51.0382 49.2482 51.0488 49.2242 51.0701C49.2002 51.0914 49.1842 51.1101 49.1709 51.1287L48.8299 51.5843Z" fill="#DAAA72"/>
<path d="M51.1849 51.4993C51.1849 51.4567 51.2009 51.4167 51.2302 51.3874C51.2622 51.3555 51.2995 51.3421 51.3421 51.3421H52.9804C53.0124 51.3421 53.0417 51.3288 53.0657 51.3048C53.0897 51.2809 53.103 51.2516 53.103 51.2169C53.103 51.185 53.0897 51.1557 53.0657 51.1317C53.0417 51.1077 53.0124 51.0971 52.9804 51.0971H50.9665C50.9212 51.0971 50.8839 51.0811 50.8546 51.0518C50.8226 51.0198 50.8093 50.9825 50.8093 50.9399C50.8093 50.8973 50.8253 50.8573 50.8546 50.828C50.8866 50.796 50.9239 50.7827 50.9665 50.7827H52.9644C53.0257 50.7827 53.0843 50.7934 53.1376 50.8147C53.1909 50.836 53.2388 50.868 53.2788 50.9079C53.3188 50.9479 53.3507 50.9932 53.372 51.0464C53.396 51.0997 53.4067 51.1557 53.4067 51.2169C53.4067 51.2729 53.396 51.3235 53.3774 51.3714C53.3587 51.4194 53.3321 51.462 53.3001 51.4993C53.3694 51.5819 53.4067 51.6778 53.4067 51.7817C53.4067 51.843 53.396 51.9016 53.372 51.9522C53.3481 52.0028 53.3188 52.0507 53.2788 52.0907C53.2388 52.1307 53.1935 52.16 53.1376 52.1839C53.0843 52.2052 53.0257 52.2159 52.9644 52.2159H50.9665C50.9212 52.2159 50.8839 52.1999 50.8546 52.1706C50.8226 52.1387 50.8093 52.1014 50.8093 52.0587C50.8093 52.0161 50.8253 51.9762 50.8546 51.9468C50.8866 51.9149 50.9239 51.9016 50.9665 51.9016H52.9804C53.0124 51.9016 53.0417 51.8909 53.0657 51.8669C53.0897 51.843 53.103 51.8163 53.103 51.7817C53.103 51.7471 53.0897 51.7178 53.0657 51.6938C53.0417 51.6698 53.0124 51.6565 52.9804 51.6565H51.3421C51.2968 51.6565 51.2595 51.6405 51.2302 51.6112C51.1983 51.5792 51.1849 51.5419 51.1849 51.4993Z" fill="#DAAA72"/>
<path d="M23.7943 15.1665H13.8498C13.1145 15.1665 12.5178 15.7632 12.5178 16.4985V39.6028C12.5178 40.338 13.1145 40.9347 13.8498 40.9347H23.7943C24.5295 40.9347 25.1262 40.338 25.1262 39.6028V16.4985C25.1262 15.7632 24.5295 15.1665 23.7943 15.1665ZM23.5758 31.4511C23.5758 31.539 23.5039 31.6083 23.4186 31.6083H22.774C22.6861 31.6083 22.6168 31.5364 22.6168 31.4511V24.6501C22.6168 24.5622 22.6887 24.4929 22.774 24.4929H23.4186C23.5066 24.4929 23.5758 24.5649 23.5758 24.6501V31.4511Z" fill="#DAAA72"/>
<path d="M51.1451 15.1665H41.2006C40.468 15.1665 39.8687 15.7659 39.8687 16.4985V39.6028C39.8687 40.3354 40.468 40.9347 41.2006 40.9347H51.1451C51.8777 40.9347 52.4771 40.3354 52.4771 39.6028V16.4985C52.4771 15.7659 51.8777 15.1665 51.1451 15.1665ZM42.1676 31.4511C42.1676 31.539 42.0957 31.6083 42.0105 31.6083H41.3658C41.2779 31.6083 41.2086 31.5364 41.2086 31.4511V24.6501C41.2086 24.5622 41.2805 24.4929 41.3658 24.4929H42.0105C42.0984 24.4929 42.1676 24.5649 42.1676 24.6501V31.4511Z" fill="#DAAA72"/>
<path d="M37.4708 30.6841H27.5263C26.7937 30.6841 26.1943 31.2835 26.1943 32.016V39.6029C26.1943 40.3355 26.7937 40.9349 27.5263 40.9349H37.4708C38.2034 40.9349 38.8027 40.3355 38.8027 39.6029V32.016C38.8027 31.2835 38.2034 30.6841 37.4708 30.6841ZM32.9794 32.413C32.9794 32.5009 32.9075 32.5701 32.8222 32.5701H32.1775C32.0896 32.5701 32.0204 32.4982 32.0204 32.413V31.7683C32.0204 31.6804 32.0923 31.6111 32.1775 31.6111H32.8222C32.9101 31.6111 32.9794 31.6831 32.9794 31.7683V32.413Z" fill="#DAAA72"/>
<path d="M37.4708 29.6157H27.5263C26.7937 29.6157 26.1943 29.0163 26.1943 28.2837V16.4985C26.1943 15.7659 26.7937 15.1665 27.5263 15.1665H37.4708C38.2034 15.1665 38.8027 15.7659 38.8027 16.4985V28.2837C38.8027 29.0163 38.2034 29.6157 37.4708 29.6157Z" fill="#DAAA72"/>
<rect x="11.9167" y="49.8335" width="42.25" height="3.25" fill="white"/>
</svg>
