<svg width="24" height="24" viewBox="0 0 24 24" fill="none" xmlns="http://www.w3.org/2000/svg">
<g clip-path="url(#clip0)">
<path d="M0.937483 12.9375L20.7918 12.9375L17.5028 16.2105C17.1358 16.5758 17.1344 17.1693 17.4997 17.5363C17.8649 17.9033 18.4586 17.9047 18.8255 17.5395L23.7242 12.6645C23.7245 12.6642 23.7247 12.6639 23.725 12.6636C24.0911 12.2984 24.0922 11.7029 23.7251 11.3364C23.7248 11.3361 23.7245 11.3358 23.7243 11.3355L18.8256 6.46052C18.4587 6.09537 17.8651 6.09663 17.4998 6.46371C17.1345 6.83069 17.1359 7.42427 17.5029 7.78952L20.7918 11.0625L0.937483 11.0625C0.419703 11.0625 -1.66127e-05 11.4822 -1.6658e-05 12C-1.67033e-05 12.5178 0.419703 12.9375 0.937483 12.9375Z" fill="white"/>
</g>
<defs>
<clipPath id="clip0">
<rect width="24" height="24" fill="white" transform="translate(24 24) rotate(-180)"/>
</clipPath>
</defs>
</svg>
