<svg width="50" height="50" viewBox="0 0 50 50" fill="none" xmlns="http://www.w3.org/2000/svg">
<path d="M48.5703 6.83545C47.8347 6.09864 46.6413 6.09736 45.9057 6.83233L23.299 29.3794L15.1426 20.5207C14.4378 19.7557 13.2462 19.7061 12.4799 20.4107C11.7141 21.1155 11.6651 22.3077 12.3699 23.0734L21.8549 33.3743C22.2022 33.7519 22.6884 33.9711 23.201 33.9817C23.2147 33.9823 23.228 33.9823 23.2412 33.9823C23.7393 33.9823 24.2185 33.7845 24.5716 33.4327L48.5666 9.50059C49.304 8.76573 49.3052 7.57227 48.5703 6.83545Z" fill="white" fill-opacity="0.3"/>
<path d="M48.1155 23.1155C47.0747 23.1155 46.2312 23.9591 46.2312 25C46.2312 36.7073 36.7073 46.2312 25 46.2312C13.2934 46.2312 3.76885 36.7073 3.76885 25C3.76885 13.2934 13.2934 3.76885 25 3.76885C26.0408 3.76885 26.8845 2.92529 26.8845 1.88447C26.8845 0.843555 26.0408 0 25 0C11.2148 0 0 11.2148 0 25C0 38.7846 11.2148 50 25 50C38.7846 50 50 38.7846 50 25C50 23.9592 49.1564 23.1155 48.1155 23.1155Z" fill="white" fill-opacity="0.3"/>
</svg>
